<svg xmlns="http://www.w3.org/2000/svg" viewBox="0 0 1437.56139 425.17315"><defs><style>.cls-1,.cls-6{fill:#fbe8be;}.cls-2{fill:#ead4a7;}.cls-3{fill:#c7a081;}.cls-4{fill:#bf9473;}.cls-5{fill:#997f6d;}.cls-6{stroke:#1a1a1a;stroke-linecap:round;stroke-linejoin:round;stroke-width:9px;}.cls-7{fill:#fffef3;}</style></defs><g id="Layer_3" data-name="Layer 3"><path class="cls-1" d="M1432.56189,251.71893c-7.69525-8.88886-16.95648-16.14545-26.67419-22.69751-9.992-6.737-20.25135-13.18359-31.46338-17.69574-20.23737-8.14423-42.53479-9.712-63.937-6.17151.06726-.02856.13513-.05878.20239-.08722q9.12661-3.86169,18.09283-8.08581a361.238,361.238,0,0,0,35.09595-18.52167c10.87341-6.68573,20.03094-15.226,29.26544-23.956,9.28986-8.78223,19.11322-17.242,26.19208-28.00171,2.21832-3.37183-.76782-7.29639-4.31738-7.52362-32.27173-2.0658-63.74964-2.325-93.63428,11.69976a155.81988,155.81988,0,0,0-35.79028,23.64356c-5.47681,4.75952-10.403,10.06354-15.695,15.015-2.81464,2.63355-5.96271,5.61615-9.4975,7.26776-.8667.405-3.28662,1.56818-4.31207.81025a1.2583,1.2583,0,0,1-.41419-.67267q.08176-2.2977.16358-4.59546a5.5568,5.5568,0,0,0-.11963-1.37616c2.58667-6.50665,5.353-12.9469,7.43713-19.63935a171.42316,171.42316,0,0,0,5.24286-23.18585c1.27869-7.772,2.44489-15.60388,3.28583-23.43628.82135-7.65.944-15.53412-1.49786-22.923-2.25672-6.82861-6.28174-12.90448-8.58913-19.70831-2.47685-7.30359-1.86278-15.21027-4.42625-22.493-1.2251-3.4804-2.89771-6.77728-4.25635-10.20361a42.95928,42.95928,0,0,1-2.54761-10.31848c-.46191-3.44757-.92859-7.09985-2.8103-10.11157a11.6875,11.6875,0,0,0-7.04438-5.38947c-7.23034-1.56293-10.7135,6.40552-12.8728,11.8161-2.75036,6.89167-4.20978,14.19684-5.93622,21.38751a152.37634,152.37634,0,0,1-7.16681,21.89875c-5.827,14.32361-12.70495,28.74341-13.07489,44.50482a49.985,49.985,0,0,0,.95148,10.94055,1.417,1.417,0,0,0,.12012.2992c.01666.12915.03644.258.05408.38708a108.62677,108.62677,0,0,0,4.74224,39.37372,126.02812,126.02812,0,0,0,9.10224,21.14038c2.73364,5.1654,5.52838,10.29919,8.32287,15.4328-11.452-10.96271-24.20031-20.29761-39.85681-24.89764-24.71234-7.26069-51.37811-2.95624-74.94659,6.255a255.65029,255.65029,0,0,0-24.33392,11.15863c-5.45392,1.73309-10.749,4.49078-15.723,6.733-7.08068,3.19177-15.658,6.44855-19.66735,13.617-7.12372,12.73632,3.95361,17.76031,15.91986,20.0689.84564.36206,1.6878.70063,2.50567,1.00757,16.895,6.34058,34.89264,10.11377,52.7652,12.30139a248.88841,248.88841,0,0,0,99.43347-8.12378,9.51332,9.51332,0,0,1,.175,2.29029,94.71425,94.71425,0,0,0-14.60425,12.37878,79.43034,79.43034,0,0,0-20.02691,42.42218c-5.28479,37.83081,19.1452,69.58832,34.04858,102.11066a4.01219,4.01219,0,0,0,3.79327,2.58655,4.42364,4.42364,0,0,0,5.51618-3.464,212.95446,212.95446,0,0,1,26.6933-65.93683c4.111-6.68958,8.82977-12.95618,11.7323-20.31012,5.65387-14.32459,4.97168-30.105,2.795-45.06519-.4361-2.99719-1.58875-6.91534-.39972-9.85644,1.31329-3.24841,4.83344-3.67371,7.94043-3.30988a24.43988,24.43988,0,0,1,6.65094,1.89844,4.86456,4.86456,0,0,0,.78192.4115q.71329.29178,1.42645.58356c3.90967,1.84662,7.75183,4.01745,11.94818,4.88812a6.345,6.345,0,0,0,1.415.13293c12.06159,6.33466,25.86512,9.737,39.21338,11.8357,29.42566,4.62646,59.2063,2.20135,88.6037-1.35919a5.45883,5.45883,0,0,0,3.3645-1.75629A5.1854,5.1854,0,0,0,1432.56189,251.71893Z"/><path class="cls-2" d="M1436.72205,250.93371c-6.69721-10.1474-16.17829-17.74273-26.13135-24.53473a157.23057,157.23057,0,0,0-32.34876-16.94452,128.81189,128.81189,0,0,0-48.488-8.59576c16.19647-7.98193,32.32031-16.23273,46.50512-27.44446,17.72-14.006,33.11634-30.91247,46.434-49.10357a3.98939,3.98939,0,0,0-.07635-5.24884,4.86357,4.86357,0,0,0-4.73962-4.23475c-18.29078-.75885-36.586-1.358-54.76154,1.30365a170.64672,170.64672,0,0,0-44.62219,13.14484,173.1587,173.1587,0,0,0-54.66449,38.59906c8.81915-25.56531,17.1886-51.79877,12.69616-78.55981-1.54071-9.178-5.892-16.9311-10.00262-25.13843-4.1861-8.358-6.09943-17.30878-7.73822-26.44934-2.05725-11.475-4.55969-39.06824-21.67212-37.67627a5.06321,5.06321,0,0,0-4.6217,3.97265c-7.6045,5.85193-8.29749,19.33558-10.95411,28.16986-4.46118,14.83478-10.81915,28.99775-15.837,43.63843-5.02612,14.6648-8.83716,30.23731-8.01685,45.84955.76087,14.481,5.70166,28.44507,11.38782,41.658a193.63072,193.63072,0,0,0,25.394,42.45734c3.951,5.07086,10.9823-2.05133,7.07111-7.07111a180.58621,180.58621,0,0,1-25.0144-43.2962c-6.34339-15.74292-10.42243-31.65985-8.25251-48.72272,2.16895-17.05444,8.7627-33.17767,14.87708-49.11066,3.1015-8.08185,6.15649-16.1972,8.558-24.52,1.18567-4.10888,2.11548-8.25927,3.0296-12.43475.7132-3.25806,1.48969-9.149,5.75635-9.4541,3.93524,3.263,5.36933,12.59894,6.19678,16.29175,1.78638,7.97253,2.7782,16.10412,4.69659,24.04907,3.897,16.13928,15.03669,29.19928,16.10633,46.09589,2.15155,33.98584-14.09748,65.97021-23.2804,97.84759-1.78479,6.19556,7.86176,8.84082,9.64276,2.65839.44123-1.53162.90442-3.067,1.37653-4.604a5.44076,5.44076,0,0,0,1.18176-1.2185,164.455,164.455,0,0,1,67.13068-54.397,160.96867,160.96867,0,0,1,41.4729-12.02215c14.90613-2.23065,30.05224-1.9574,45.09613-1.37647A236.60555,236.60555,0,0,1,1369.188,166.3432c-17.89734,14.0523-39.38165,23.18695-59.592,33.34875a4.20912,4.20912,0,0,0-2.52869,3.75824c-1.38715.29657-2.772.60871-4.15057.95673-6.23584,1.57416-3.59357,11.22107,2.65844,9.64276,22.73249-5.73859,46.493-3.631,68.39826,4.44263a144.00776,144.00776,0,0,1,28.7027,14.6286c7.89019,5.14325,15.819,10.89483,21.90649,18.17828a254.48089,254.48089,0,0,1-74.562,3.97736c-13.36377-1.28925-25.92365-4.97437-38.57764-9.29529q-19.94064-6.80905-39.87378-13.64014c-4.84906-1.65881-7.494,4.09509-5.33526,7.57025-5.89429,9.14319-1.66,19.65949-1.046,30.16309.82464,14.10712-4.61731,27.548-11.15717,39.75055-11.03839,20.59637-23.38928,40.08234-30.62176,62.24451-13.11316-21.48786-27.3136-43.92011-29.44135-69.14185-2.4032-28.48682,13.60968-50.27325,32.57275-69.63348,4.50672-4.60114-2.55841-11.67823-7.071-7.07111-20.24255,20.6665-37.5152,44.58685-35.6294,74.93518,2.00708,32.299,21.627,59.67975,37.41346,86.7583,3.02,5.18018,10.73321,1.16205,9.13305-3.92364,6.28638-25.27985,20.12952-46.45111,32.279-69.12073,5.85919-10.93244,10.67932-22.47534,12.15338-34.87842a62.1391,62.1391,0,0,0-.69233-18.22131c-.99041-5.681-2.94384-12.699,1.30188-17.51288,24.31537,8.612,48.85267,18.53381,74.59223,21.017a264.01133,264.01133,0,0,0,83.09521-5.57886,6.8781,6.8781,0,0,0,3.60627-8.764Z"/><path class="cls-2" d="M1238.68481,237.19976c-16.69543,22.16968-16.94012,50.85444-14.17858,77.26819.66241,6.33625,10.66955,6.40424,10,0-2.59516-24.82226-2.90241-51.35223,12.81329-72.221C1251.19159,237.10522,1242.51312,232.11609,1238.68481,237.19976Z"/><path class="cls-2" d="M1389.68561,235.63556a93.99712,93.99712,0,0,0-41.92139-11.85383c-7.99762-.3244-16.00183.1651-23.99963-.24249a156.14007,156.14007,0,0,1-25.58319-3.51074c-6.2721-1.37677-8.95136,8.26141-2.65839,9.64282,15.47022,3.39588,30.73431,3.97687,46.50543,4.00666,15.09851.0285,29.35364,3.239,42.61,10.59228C1390.27094,247.39465,1395.32043,238.76123,1389.68561,235.63556Z"/><path class="cls-2" d="M1365.24811,139.52105c-29.34229,16.21344-64.11591,24.4032-86.98633,50.49585-4.22632,4.82178,2.81921,11.922,7.07111,7.07111,22.19421-25.32123,56.46441-33.1853,84.9624-48.93225C1375.92932,145.0426,1370.89062,136.40319,1365.24811,139.52105Z"/><path class="cls-2" d="M1245.721,167.70953c-7.08826-19.921-9.18347-40.9223-8.04938-61.96118,1.16608-21.63153,8.24225-43.214,6.41931-64.92236-.5346-6.3664-10.53937-6.42328-10,0,.97608,11.62341-.95129,22.95849-2.85443,34.38555a272.17542,272.17542,0,0,0-3.65521,32.35474c-.96393,21.23505,1.34827,42.71094,8.49689,62.80164C1238.2204,176.38836,1247.88605,173.79431,1245.721,167.70953Z"/><path class="cls-2" d="M1238.44653,212.33441c-15.05548,6.19122-30.2066,12.31738-46.00049,16.38531a169.58144,169.58144,0,0,1-48.563,4.96027,252.38723,252.38723,0,0,1-48.6518-6.9469c-7.73852-1.82263-15.47058-3.83533-23.04376-6.2619-2.9118-.933-15.17664-4.27869-17.83862-8.61475.02618-.08325.05639-.16186.07953-.24859,1.80914-6.78748,8.58978-10.15754,14.39263-13.10639q11.31684-5.751,23.01771-10.75165c15.923-6.77954,32.54235-12.25921,49.657-15.03466,16.998-2.7566,35.03546-2.92688,51.369,3.05621,15.87438,5.81488,30.76977,15.33,44.30493,25.33032,5.18017,3.82739,10.17285-4.84759,5.04718-8.6347-14.92151-11.02466-31.476-21.32453-49.176-27.21247-17.88666-5.95-37.62915-5.06775-55.97186-1.88525-18.57361,3.22247-36.40625,9.62176-53.61426,17.1936-8.33661,3.66828-16.929,7.36756-24.75946,12.04474-4.78235,2.85657-9.05206,6.39972-11.74078,11.08869a4.15212,4.15212,0,0,0-2.71942,3.35186c-3.272,16.81708,22.12268,22.316,33.821,25.58319a301.62981,301.62981,0,0,0,54.65448,10.35273,187.66408,187.66408,0,0,0,55.08545-2.90735c18.42273-3.88416,35.95447-10.96283,53.309-18.09955C1246.975,219.56323,1244.40393,209.88452,1238.44653,212.33441Z"/><path class="cls-2" d="M1237.84937,203.00848c-20.64484-13.88684-46.47486-16.01538-70.46863-11.8493-26.73664,4.64233-53.74457,19.24206-81.189,10.47644-6.14465-1.96259-8.77527,7.68908-2.65838,9.64282,26.407,8.43426,52.39794-2.67487,77.96228-8.707,23.956-5.65265,50.30267-5.05658,71.30658,9.07178C1238.15662,215.24487,1243.16736,206.58563,1237.84937,203.00848Z"/><path class="cls-3" d="M1208.26514,257.68377c6.39611-9.87341,14.16839-18.742,21.9-27.5736,1.26691-1.44721-.84668-3.57734-2.12134-2.12134-13.84533,15.8153-28.17492,32.363-33.95782,53.044a62.62568,62.62568,0,0,0-.89466,30.48554c2.276,10.35272,6.813,20.07751,11.734,29.40741,5.92774,11.23877,12.22443,22.292,18.36414,33.416.93316,1.69068,3.5249.179,2.59039-1.51416-5.378-9.744-10.8064-19.462-16.12372-29.23919-4.90356-9.0163-9.61139-18.25068-12.46893-28.14893a60.27168,60.27168,0,0,1-1.21881-29.97693C1198.27618,275.50085,1202.73987,266.21289,1208.26514,257.68377Z"/><path class="cls-3" d="M1227.61932,49.20569c4.64081-11.29389,8.86744-22.84241,10.87818-34.92963.31421-1.88855-2.57624-2.70062-2.89282-.79749-3.64936,21.937-14.42328,41.68012-22.10511,62.31824-3.80188,10.21417-6.84417,20.76929-7.79651,31.66431a91.015,91.015,0,0,0,4.17829,34.64111c3.98834,12.945,10.04638,25.15064,16.47857,37.03009.91956,1.69837,3.51069.18555,2.5904-1.51416-11.12525-20.54687-21.592-42.968-20.46631-66.90485C1209.50677,88.96521,1219.49213,68.98419,1227.61932,49.20569Z"/><path class="cls-3" d="M1229.52386,192.48553c-20.48175-12.68-44.59045-18.78754-68.58422-19.008-25.09919-.2306-49.93634,5.96057-72.81842,16.03448-12.42322,5.46942-24.827,11.90491-34.63495,21.45789-1.38544,1.34948.73681,3.46984,2.12133,2.12133,8.53974-8.31774,19.1258-14.09973,29.85285-19.09753a196.17625,196.17625,0,0,1,34.9732-12.50641c23.24695-5.84271,47.747-6.87695,71.16126-1.35187a122.58094,122.58094,0,0,1,36.41479,14.94049C1229.65582,196.095,1231.164,193.50091,1229.52386,192.48553Z"/><path class="cls-3" d="M1422.39294,246.10968a172.379,172.379,0,0,1-59.42413,7.606,170.18622,170.18622,0,0,1-29.7099-4.03247c-10.08526-2.29236-19.84808-5.66693-29.5863-9.11017q-17.27327-6.10748-34.54615-12.21582c-1.82373-.64489-2.60827,2.25251-.79754,2.89283l31.02777,10.97168c9.9632,3.52307,19.91486,7.13623,30.18884,9.66455a175.12217,175.12217,0,0,0,93.645-2.88367C1425.02728,248.429,1424.24316,245.53192,1422.39294,246.10968Z"/><path class="cls-3" d="M1408.60284,123.99591c-8.7174,16.20666-22.99731,28.366-38.27111,38.19806-16.29322,10.48828-33.999,18.51446-50.58783,28.49817-4.72821,2.84558-9.36512,5.84838-13.82727,9.09722q-3.32254,2.41911-6.50983,5.0188-1.60437,1.31259-3.16486,2.67743c-.91961.8039-1.91052,1.85163-3.21008,1.87036a1.5009,1.5009,0,0,0,0,3c2.42822-.035,4.09741-1.68249,5.82574-3.1792q2.9025-2.51347,5.95575-4.847c3.97974-3.03882,8.1233-5.86011,12.35779-8.53076,8.58075-5.41175,17.53308-10.19837,26.47705-14.97418,16.88153-9.01416,33.9101-18.19294,48.18354-31.12647a91.39937,91.39937,0,0,0,19.36151-24.18829C1412.10773,123.80987,1409.51874,122.29315,1408.60284,123.99591Z"/><path class="cls-3" d="M1353.21783,137.03729a124.9049,124.9049,0,0,0-63.20379,35.975,122.6924,122.6924,0,0,0-12.81494,16.07122c-1.07666,1.609,1.52087,3.11255,2.59045,1.51416a121.73625,121.73625,0,0,1,54.9671-44.66864,120.34526,120.34526,0,0,1,19.25873-5.999C1355.89941,139.51226,1355.10211,136.61938,1353.21783,137.03729Z"/><path class="cls-3" d="M1251.59735,84.56555c-1.16022-7.58075-2.51953-15.129-3.90668-22.671-.34875-1.89612-3.24054-1.093-2.89282.79755,4.81281,26.16735,9.66132,53.23754,5.81915,79.86492a110.33992,110.33992,0,0,1-5.35534,21.67365c-.65589,1.8194,2.24194,2.603,2.89282.79755C1257.46307,139.20507,1255.6781,111.22888,1251.59735,84.56555Z"/><path class="cls-3" d="M1216.5603,204.87371c-17.11871-3.76861-34.58233-7.60229-52.22326-6.57952-16.45179.95379-32.1662,6.34936-48.36042,8.9306-8.9566,1.42761-18.15008,1.86261-27.07147-.032-1.88318-.39991-2.688,2.49133-.79755,2.89282,16.02222,3.40259,32.1612-.34046,47.79908-3.92871a199.61038,199.61038,0,0,1,24.22906-4.52515,115.6846,115.6846,0,0,1,26.12024.572c9.93726,1.2431,19.73529,3.41168,29.50678,5.56287C1217.64429,208.18078,1218.44794,205.2893,1216.5603,204.87371Z"/><path class="cls-3" d="M1247.58972,236.2893a90.66612,90.66612,0,0,0-16.67285,29.18268,92.24561,92.24561,0,0,0-4.74957,34.80518c.37457,7.53619,1.43658,15.01819,2.53784,22.47613.281,1.90308,3.17218,1.09412,2.89282-.79748-1.82538-12.3617-3.43951-24.876-2.00476-37.36884a87.21493,87.21493,0,0,1,20.1178-46.17633C1250.95673,236.949,1248.84442,234.81714,1247.58972,236.2893Z"/><path class="cls-3" d="M1251.38007,262.55249c-.389-1.88965-3.28138-1.08991-2.89289.79754a63.68506,63.68506,0,0,1-2.36969,33.9701c-.64349,1.82421,2.25385,2.60888,2.89282.79748A66.70043,66.70043,0,0,0,1251.38007,262.55249Z"/><path class="cls-3" d="M1186.78467,213.05487a25.62975,25.62975,0,0,1-8.58624,2.84424q-4.93131.94179-9.88776,1.76007a101.77227,101.77227,0,0,1-20.34241,1.57769c-1.93066-.07483-1.92743,2.9253,0,3a105.90341,105.90341,0,0,0,21.14-1.68481q5.16778-.84348,10.31365-1.8421a26.98847,26.98847,0,0,0,8.877-3.0647A1.50111,1.50111,0,0,0,1186.78467,213.05487Z"/><path class="cls-3" d="M1176.85144,186.95837a98.87823,98.87823,0,0,0-50.55,2.34863c-1.83392.58081-1.05041,3.47809.79749,2.89289a95.73437,95.73437,0,0,1,48.955-2.3487C1177.9364,190.25708,1178.74078,187.36572,1176.85144,186.95837Z"/><path class="cls-3" d="M1228.32385,146.56048c-8.10718-17.246-6.71509-37.00519-5.36718-55.47894.14056-1.92615-2.86011-1.91724-3,0-1.0893,14.92993-2.11554,30.263,1.50524,44.94788a64.71156,64.71156,0,0,0,4.27155,12.04522C1226.5542,149.82061,1229.1413,148.29944,1228.32385,146.56048Z"/><path class="cls-3" d="M1355.5827,148.28442c-.02984,4.41956-3.62433,7.94385-6.59363,10.81085a78.654,78.654,0,0,1-10.02618,8.06726c-7.13464,4.92432-14.76184,9.07892-21.95325,13.916a90.81542,90.81542,0,0,0-11.57165,9.05707c-1.4101,1.3247.71435,3.443,2.12134,2.12133,13.13543-12.33917,30.74237-18.59765,43.6936-31.17791,3.53943-3.43805,7.29449-7.56635,7.32977-12.79456A1.5009,1.5009,0,0,0,1355.5827,148.28442Z"/><path class="cls-3" d="M1384.03076,241.5802c-11.22656,1.47137-20.72888-6.42639-30.16711-11.18262a46.428,46.428,0,0,0-17.704-4.93768c-7.18055-.54975-14.43219-.50165-21.62952-.69031l-24.75708-.64893c-1.93121-.0506-1.93,2.9494,0,3,14.59406.38257,29.22644.48767,43.8089,1.18207a50.70388,50.70388,0,0,1,10.2569,1.353,41.423,41.423,0,0,1,8.00213,3.07867c5.04572,2.49359,9.768,5.58753,14.81891,8.07086,5.40827,2.65906,11.27881,4.57343,17.37091,3.775a1.55161,1.55161,0,0,0,1.5-1.5A1.50728,1.50728,0,0,0,1384.03076,241.5802Z"/><path class="cls-4" d="M1334.01648,149.07818c-8.68683,18.647-32.37952,21.75568-48.781,30.70453a139.03862,139.03862,0,0,0-23.51165,16.33954,57.50243,57.50243,0,0,0-7.3288,7.39612,95.383,95.383,0,0,1,5.27979-14.96112c5.55719-12.42615,13.11267-23.818,20.82879-34.98328,7.53046-10.89667,15.26843-21.70892,21.56977-33.38507a131.47151,131.47151,0,0,0,8.23773-18.33716c2.23718-6.29168,4.30237-12.84192,2.52051-19.48614-1.66535-6.20935-11.31452-3.57483-9.64283,2.65844,1.58423,5.907-2.10418,13.53821-4.35614,18.96064a137.52879,137.52879,0,0,1-8.7857,17.14c-6.316,10.68066-13.626,20.72467-20.62506,30.95752-10.82184,15.82178-20.88025,32.7876-25.19941,51.42615-6.21185-17.86157-6.31-37.61188-7.08532-56.34095q-1.59614-38.55687-2.20526-77.14508c-.10358-6.4284-10.10389-6.448-10,0q.65286,40.53846,2.36944,81.04938c.59674,13.97785,1.10828,28.25366,3.85651,41.97363a342.17926,342.17926,0,0,0-37.24164-31.23394c-9.2428-6.663-19.11884-12.57056-29.93585-16.2934a71.33757,71.33757,0,0,0-16.8952-3.53454c-6.65906-.5976-13.17505-.459-19.52076-2.87726-6.01922-2.29383-8.62256,7.37-2.65838,9.64276,10.8714,4.14288,22.91473,2.23578,34.04,5.63391,10.89245,3.327,20.742,9.44891,29.923,16.06323a330.934,330.934,0,0,1,43.73321,38.103,170.4795,170.4795,0,0,0-45.09484-9.16022,124.66138,124.66138,0,0,0-27.371,1.49469c-9.1,1.5119-19.4104,5.85553-27.73407-.12848-5.23358-3.76251-10.23144,4.90766-5.04718,8.63471,7.33088,5.27032,16.27527,4.93029,24.75788,3.29626,10.04443-1.93487,19.70355-3.62836,29.98987-3.486,19.89965.27533,39.33514,5.41223,57.77923,12.61609a4.45413,4.45413,0,0,0,2.49848.2705c.01336.0232.02148.05091.03527.07367l.1684.27869c1.32208,2.18805,4.58063,3.343,6.84094,1.79376.18665-.12793.34766-.25934.507-.39105,2.66522,1.61163,6.46326,1.10693,7.06153-2.75641,1.4317-9.24451,8.52874-15.45929,15.55487-20.9433a123.15851,123.15851,0,0,1,25.58435-15.60235c16.57971-7.37079,36.16925-12.49262,44.51812-30.41419C1345.352,148.32794,1336.73456,143.24359,1334.01648,149.07818Z"/><path class="cls-3" d="M1242.15411,203.72583c-3.11773-17.56391-4.11749-35.40985-4.47052-53.22022-.35223-17.77356-.072-35.55542-.61206-53.32586-.30633-10.07935-.88556-20.15241-1.97863-30.179-.207-1.89868-3.20929-1.9198-3,0,1.9436,17.82806,2.23895,35.77374,2.33911,53.6911.10064,17.99091.01275,36.00342,1.25848,53.96185a282.835,282.835,0,0,0,3.5708,29.86963C1239.59813,206.421,1242.48981,205.61682,1242.15411,203.72583Z"/><path class="cls-3" d="M1308.89288,77.46429a1.55428,1.55428,0,0,0-1.84515,1.04767,1.50915,1.50915,0,0,0,1.04767,1.84521c1.76239.24213,2.44488,2.03748,2.79724,3.58985a22.657,22.657,0,0,1,.35089,6.94568,41.1903,41.1903,0,0,1-4.16272,13.76544c-3.96472,8.3985-9.04,16.33453-14.05121,24.13739-9.84772,15.33362-20.49426,30.184-29.33575,46.14313A169.39639,169.39639,0,0,0,1251.116,202.902c-.61713,1.83392,2.27929,2.62072,2.89282.79748,6.03314-17.92889,15.87457-34.2038,26.17938-49.955,5.19873-7.94641,10.53778-15.80072,15.663-23.79516,5.16418-8.05518,10.46686-16.27057,14.3919-25.01813,2.23529-4.98175,3.974-10.285,4.09778-15.79083C1314.42767,85.28485,1313.9007,78.15234,1308.89288,77.46429Z"/><path class="cls-3" d="M1339.66589,150.246c.03919,7.33539-3.94464,13.89172-9.22094,18.73291-6.01239,5.51648-13.76838,8.68231-21.32239,11.46686-15.31464,5.6452-30.81329,11.45569-42.90369,22.85833a55.33422,55.33422,0,0,0-13.12549,18.52442,1.59184,1.59184,0,0,0-.65557-.22363c-8.40308-.96784-16.04224-5.00495-23.911-7.81379a113.47271,113.47271,0,0,0-51.12536-5.75549c-9.07129,1.03973-18.02332,2.54352-27.184,2.53107-4.67853-.00641-9.70368.04364-14.205-1.39173-3.65765-1.16632-7.298-4.04211-7.46643-8.17-.07843-1.92371-3.07886-1.93372-3,0a11.62908,11.62908,0,0,0,5.14032,8.87177c3.33758,2.41131,7.59247,3.09143,11.60156,3.40136,9.44861.73041,18.80719-.085,28.16931-1.34894a136.92242,136.92242,0,0,1,27.538-1.43054,110.28088,110.28088,0,0,1,26.21625,4.9961c9.309,2.97351,18.07592,7.841,27.8742,9.06115-.08435,1.4867,2.37927,2.00208,2.98023.35523,5.47137-14.994,18.51318-25.48407,32.38031-32.43689,7.5238-3.77234,15.43786-6.51392,23.30877-9.4447,7.59839-2.82935,15.25531-6.08838,21.38-11.539,6.06653-5.39881,10.57526-12.94275,10.53094-21.24445A1.5009,1.5009,0,0,0,1339.66589,150.246Z"/><path class="cls-3" d="M1231.92517,205.40484c-12.39911-12.49322-24.88519-25.02807-39.19873-35.35815-13.44421-9.7027-28.767-17.44086-45.22668-20.24689-4.34436-.74066-8.73175-.93066-13.0965-1.48266-3.988-.50434-8.09528-1.5-11.12018-4.30335-1.41455-1.311-3.54108.80554-2.12134,2.12128,5.57556,5.16717,13.45276,5.16388,20.57239,5.88336a87.20388,87.20388,0,0,1,24.05274,6.21167c15.92681,6.49554,29.88134,16.956,42.55188,28.42663,7.4002,6.69941,14.43548,13.78644,21.46514,20.86945A1.50085,1.50085,0,0,0,1231.92517,205.40484Z"/><path class="cls-5" d="M1232.73627,63.36425a3.93268,3.93268,0,0,0-5.91083,1.52039,12.178,12.178,0,0,0-1.08173,2.68933q-.19839.41574-.37262.85095c-.02429.05664-.05041.11444-.07348.17017-.01221.02954-.02185.05994-.03388.08954a7.43622,7.43622,0,0,0-.59021,1.70727,21.23881,21.23881,0,0,0-.78265,6.26264c.00287.16607.02215.33166.028.49768-.00244.1914-.02026.3836-.018.57458a23.22632,23.22632,0,0,0,.96045,6.35389,33.9725,33.9725,0,0,0,.7583,3.87139,3.69165,3.69165,0,0,0,1.37451,2.48951,1.96387,1.96387,0,0,0,.94836.28039,4.74007,4.74007,0,0,0,1.57758.879c4.32245,1.3974,6.72565-4.12177,7.73846-8.21338a16.29914,16.29914,0,0,0,1.80762-6.251A15.6832,15.6832,0,0,0,1232.73627,63.36425Z"/><path class="cls-5" d="M1311.594,88.2185a18.22025,18.22025,0,0,0-.65509-5.05066,4.647,4.647,0,0,0-.27514-.62274,1.58121,1.58121,0,0,0,.17047-.6159c.2135-2.86133-3.30414-4.34-5.62006-3.235-2.97827,1.42114-3.63159,5.61353-4.45581,8.43884-.08679.29749-.17047.59613-.25506.89441a21.61835,21.61835,0,0,0-1.76862,7.54846c-.00549.10523-.0014.21027-.00531.3155-.1405.93823-.25238,1.881-.32532,2.82934-.19879,2.58356.10773,5.75964,2.2486,7.53113a4.85024,4.85024,0,0,0,.65356.44879c.00989.01788.018.03668.028.0545a1.54012,1.54012,0,0,0,2.00885.56641,6.21759,6.21759,0,0,0,5.18585-2.64191c2.102-2.87548,2.5592-7.11877,2.90521-10.55792A40.2867,40.2867,0,0,0,1311.594,88.2185Z"/><path class="cls-5" d="M1341.565,153.80645c-.21942-2.41735-1.794-6.08837-4.29944-6.22851a1.48929,1.48929,0,0,0-2.52594-1.17664q-4.33437,4.67871-8.46173,9.54285c-1.28851,1.52051-2.60943,3.03143-3.809,4.62378a5.88682,5.88682,0,0,0-1.36493,4.89111c.81507,3.404,4.68293,4.88471,7.82965,4.19318,3.46418-.76129,6.69587-3.62049,8.97065-6.22382C1340.21393,160.78515,1341.89142,157.4021,1341.565,153.80645Z"/><path class="cls-5" d="M1136.37305,144.2633a1.34134,1.34134,0,0,0-.69123-1.53369,23.18362,23.18362,0,0,0-5.69873-2.30786,10.7708,10.7708,0,0,0-6.06646-.12518,5.7801,5.7801,0,0,0-3.7768,3.74151,5.58613,5.58613,0,0,0,1.33618,5.02771,6.97176,6.97176,0,0,0,1.229,1.12183c.035.03436.06707.07214.10272.10577a14.9845,14.9845,0,0,0,10.18127,3.94239c2.81342.79437,6.6897.81878,7.50452-2.67444C1141.1734,148.64673,1138.807,145.98785,1136.37305,144.2633Zm-11.30335.11743a2.69406,2.69406,0,0,0-.27185,1.0279,2.15313,2.15313,0,0,1-.36688-.79023A2.45441,2.45441,0,0,1,1125.0697,144.38073Z"/><path class="cls-5" d="M1143.7998,211.47339a7.45518,7.45518,0,0,0-2.564-4.91083,3.58392,3.58392,0,0,0-.14484-.55292,4.52207,4.52207,0,0,0-.61236-1.13251,1.59129,1.59129,0,0,0-.27961-1.72082c-2.17315-2.57794-6.59246-5.15332-10.234-4.71887-.01636-.00531-.03217-.01264-.04853-.018a4.20177,4.20177,0,0,0-4.254.53748,3.54356,3.54356,0,0,0-.71277.92364,2.60887,2.60887,0,0,0-.62506,1.009,3.75722,3.75722,0,0,0-.50489,1.325,6.99781,6.99781,0,0,0,.823,4.19226c.15057.31451.31671.6217.49359.923.06671.2229.13581.445.22046.65869a11.53754,11.53754,0,0,0,5.51111,5.57868,39.957,39.957,0,0,0,3.78845,1.72949,13.25077,13.25077,0,0,0,3.91986,1.07635A4.65468,4.65468,0,0,0,1143.7998,211.47339Zm-15.31713-7.5271a1.834,1.834,0,0,0,.02569.31842,6.72271,6.72271,0,0,0,.41773,1.40942,6.5371,6.5371,0,0,1-.60657-.79572c-.03351-.11407-.07416-.25378-.11737-.41687A2.76212,2.76212,0,0,1,1128.48267,203.94629Zm10.66882,9.49609a5.38646,5.38646,0,0,0,1.63361-1.1767,1.80225,1.80225,0,0,1-.27509.543A1.673,1.673,0,0,1,1139.15149,213.44238Z"/></g><g id="Layer_2" data-name="Layer 2"><path class="cls-6" d="M127.44434,370.431q-21.07618,7.55712-39.70411,7.55761-32.57226,0-52.47753-19.5332Q15.35694,338.92316,15.35742,307.096q0-32.25293,19.79883-52.26464,19.79883-20.01123,51.73242-20.01172,18.09522,0,38.7461,6.17383v19.2666q-21.07619-9.68554-39.38477-9.68653-21.1831,0-34.86084,15.541Q37.71045,281.658,37.71094,305.71222q0,24.26952,15.43457,39.7041,15.43286,15.43506,39.7041,15.43457,14.68945,0,34.59473-7.66406Z"/><path class="cls-6" d="M224.73486,360.74444q-19.05468,15.96679-38.00048,15.9668-15.86206,0-26.13233-9.04785a29.17331,29.17331,0,0,1-10.272-22.88574q0-17.98829,15.9668-28.95313,15.96679-10.96288,42.15283-10.96387H221.436v-9.89941q0-12.24024-5.42969-17.457-5.42871-5.21484-17.98877-5.21582-18.20216,0-37.68164,10.21875V264.51788q22.32348-7.98341,41.88476-7.9834,22.00269,0,31.09424,8.72852,9.09083,8.729,9.08985,30.124v48.43262q0,10.43408,2.23632,14.21,2.23536,3.77929,8.40821,3.7793a33.34789,33.34789,0,0,0,6.59961-1.06446l1.916,12.56055q-10.50879,3.40576-15.91992,3.40625Q230.147,376.71124,224.73486,360.74444Zm-3.29882-13.625v-29.166h-6.28125q-43.10962,0-43.10987,23.31152,0,8.40967,5.53516,13.51855,5.53344,5.10938,14.68945,5.10938Q206.001,359.89288,221.436,347.11944Z"/><path class="cls-6" d="M286.58057,374.68878V259.08917h20.96972V280.804q14.47558-24.26952,39.38477-24.26953,32.89159,0,32.8916,39.06543v79.08887H358.85693V301.348q0-13.51758-4.2041-19.21289-4.207-5.69385-14.10449-5.69532-15.75439,0-32.998,22.67286v75.57617Z"/><path class="cls-6" d="M515.438,370.11163q-21.82178,7.2378-40.02344,7.23828-29.80518,0-45.82422-15.32812-16.02246-15.32812-16.02051-43.85547,0-26.92969,15.38184-44.28125,15.37939-17.34961,39.11816-17.35059,23.9502,0,35.28614,14.37012,11.33789,14.37012,11.33691,44.707v6.70605H435.92334q2.34082,39.27832,42.36523,39.27832,16.92482,0,37.14942-8.08984Zm-78.876-63.54785h55.77735v-2.98047q0-31.29492-26.07911-31.29492-12.561,0-20.38476,9.04785Q438.05322,290.38459,436.562,306.56378Z"/><path class="cls-6" d="M548.96826,416.73468V259.08917H569.938V280.804q15.22119-24.26952,37.78808-24.26953,19.6919,0,31.02832,15.169,11.3379,15.167,11.33692,41.35351,0,28.74024-13.41211,46.5166-13.41212,17.77881-35.127,17.77637-18.62842,0-31.61426-15.75391v55.13868ZM569.938,345.8421q14.58252,15.75439,28.74023,15.7539,13.83691,0,21.44922-12.1875,7.6084-12.1875,7.61035-34.11621,0-40.875-24.376-40.875-17.77735,0-33.42383,22.14063Z"/><path class="cls-6" d="M680.64111,374.68878V206.61163h20.96973V280.804q14.47558-24.26952,39.38477-24.26953,32.89159,0,32.8916,39.06543v79.08887H752.91748V301.348q0-13.51758-4.2041-19.21289-4.207-5.69385-14.10449-5.69532-15.75439,0-32.998,22.67286v75.57617Z"/><path class="cls-6" d="M858.29834,377.34991q-25.44141,0-39.96973-16.127-14.53125-16.125-14.53027-44.334,0-28.10155,14.583-44.22851,14.58252-16.125,39.917-16.126,25.43994,0,39.96973,16.126,14.53125,16.12793,14.53027,44.22851,0,28.20851-14.53027,44.334Q883.73975,377.35089,858.29834,377.34991Zm0-15.75391q15.11425,0,23.63086-11.81542,8.51514-11.81544,8.51562-32.89161,0-20.96924-8.51562-32.78515-8.51661-11.81544-23.63086-11.81543-15.11573,0-23.63086,11.81543-8.51659,11.81543-8.51562,32.78515,0,21.07617,8.51562,32.89161Q843.18262,361.596,858.29834,361.596Z"/><path class="cls-6" d="M956.76025,374.68878V259.08917H977.73V280.804q15.9668-24.26952,42.89746-24.26953a100.75692,100.75692,0,0,1,21.502,2.66113v32.78516h-15.7539V275.90753a38.8348,38.8348,0,0,0-8.51563-1.06445,39.54538,39.54538,0,0,0-21.1289,5.58886q-9.10254,5.58691-19.001,19v75.25684Z"/><path class="cls-6" d="M1144.21045,360.74444q-19.0547,15.96679-38.001,15.9668-15.86133,0-26.13281-9.04785a29.17443,29.17443,0,0,1-10.27148-22.88574q0-17.98829,15.96679-28.95313,15.9668-10.96288,42.15235-10.96387h12.98632v-9.89941q0-12.24024-5.42871-17.457-5.42871-5.21484-17.98925-5.21582-18.20216,0-37.68164,10.21875V264.51788q22.32422-7.98341,41.88476-7.9834,22.00342,0,31.09473,8.72852,9.08936,8.729,9.08984,30.124v48.43262q0,10.43408,2.23535,14.21,2.23536,3.77929,8.40918,3.7793a33.35822,33.35822,0,0,0,6.59961-1.06446l1.916,12.56055q-10.50879,3.40576-15.91992,3.40625Q1149.62255,376.71124,1144.21045,360.74444Zm-3.29981-13.625v-29.166h-6.28027q-43.11035,0-43.11035,23.31152,0,8.40967,5.53516,13.51855,5.53417,5.10938,14.68945,5.10938Q1125.47608,359.89288,1140.91064,347.11944Z"/><path class="cls-7" d="M127.44434,370.431q-21.07618,7.55712-39.70411,7.55761-32.57226,0-52.47753-19.5332Q15.35694,338.92316,15.35742,307.096q0-32.25293,19.79883-52.26464,19.79883-20.01123,51.73242-20.01172,18.09522,0,38.7461,6.17383v19.2666q-21.07619-9.68554-39.38477-9.68653-21.1831,0-34.86084,15.541Q37.71045,281.658,37.71094,305.71222q0,24.26952,15.43457,39.7041,15.43286,15.43506,39.7041,15.43457,14.68945,0,34.59473-7.66406Z"/><path class="cls-7" d="M224.73486,360.74444q-19.05468,15.96679-38.00048,15.9668-15.86206,0-26.13233-9.04785a29.17331,29.17331,0,0,1-10.272-22.88574q0-17.98829,15.9668-28.95313,15.96679-10.96288,42.15283-10.96387H221.436v-9.89941q0-12.24024-5.42969-17.457-5.42871-5.21484-17.98877-5.21582-18.20216,0-37.68164,10.21875V264.51788q22.32348-7.98341,41.88476-7.9834,22.00269,0,31.09424,8.72852,9.09083,8.729,9.08985,30.124v48.43262q0,10.43408,2.23632,14.21,2.23536,3.77929,8.40821,3.7793a33.34789,33.34789,0,0,0,6.59961-1.06446l1.916,12.56055q-10.50879,3.40576-15.91992,3.40625Q230.147,376.71124,224.73486,360.74444Zm-3.29882-13.625v-29.166h-6.28125q-43.10962,0-43.10987,23.31152,0,8.40967,5.53516,13.51855,5.53344,5.10938,14.68945,5.10938Q206.001,359.89288,221.436,347.11944Z"/><path class="cls-7" d="M286.58057,374.68878V259.08917h20.96972V280.804q14.47558-24.26952,39.38477-24.26953,32.89159,0,32.8916,39.06543v79.08887H358.85693V301.348q0-13.51758-4.2041-19.21289-4.207-5.69385-14.10449-5.69532-15.75439,0-32.998,22.67286v75.57617Z"/><path class="cls-7" d="M515.438,370.11163q-21.82178,7.2378-40.02344,7.23828-29.80518,0-45.82422-15.32812-16.02246-15.32812-16.02051-43.85547,0-26.92969,15.38184-44.28125,15.37939-17.34961,39.11816-17.35059,23.9502,0,35.28614,14.37012,11.33789,14.37012,11.33691,44.707v6.70605H435.92334q2.34082,39.27832,42.36523,39.27832,16.92482,0,37.14942-8.08984Zm-78.876-63.54785h55.77735v-2.98047q0-31.29492-26.07911-31.29492-12.561,0-20.38476,9.04785Q438.05322,290.38459,436.562,306.56378Z"/><path class="cls-7" d="M548.96826,416.73468V259.08917H569.938V280.804q15.22119-24.26952,37.78808-24.26953,19.6919,0,31.02832,15.169,11.3379,15.167,11.33692,41.35351,0,28.74024-13.41211,46.5166-13.41212,17.77881-35.127,17.77637-18.62842,0-31.61426-15.75391v55.13868ZM569.938,345.8421q14.58252,15.75439,28.74023,15.7539,13.83691,0,21.44922-12.1875,7.6084-12.1875,7.61035-34.11621,0-40.875-24.376-40.875-17.77735,0-33.42383,22.14063Z"/><path class="cls-7" d="M680.64111,374.68878V206.61163h20.96973V280.804q14.47558-24.26952,39.38477-24.26953,32.89159,0,32.8916,39.06543v79.08887H752.91748V301.348q0-13.51758-4.2041-19.21289-4.207-5.69385-14.10449-5.69532-15.75439,0-32.998,22.67286v75.57617Z"/><path class="cls-7" d="M858.29834,377.34991q-25.44141,0-39.96973-16.127-14.53125-16.125-14.53027-44.334,0-28.10155,14.583-44.22851,14.58252-16.125,39.917-16.126,25.43994,0,39.96973,16.126,14.53125,16.12793,14.53027,44.22851,0,28.20851-14.53027,44.334Q883.73975,377.35089,858.29834,377.34991Zm0-15.75391q15.11425,0,23.63086-11.81542,8.51514-11.81544,8.51562-32.89161,0-20.96924-8.51562-32.78515-8.51661-11.81544-23.63086-11.81543-15.11573,0-23.63086,11.81543-8.51659,11.81543-8.51562,32.78515,0,21.07617,8.51562,32.89161Q843.18262,361.596,858.29834,361.596Z"/><path class="cls-7" d="M956.76025,374.68878V259.08917H977.73V280.804q15.9668-24.26952,42.89746-24.26953a100.75692,100.75692,0,0,1,21.502,2.66113v32.78516h-15.7539V275.90753a38.8348,38.8348,0,0,0-8.51563-1.06445,39.54538,39.54538,0,0,0-21.1289,5.58886q-9.10254,5.58691-19.001,19v75.25684Z"/><path class="cls-7" d="M1144.21045,360.74444q-19.0547,15.96679-38.001,15.9668-15.86133,0-26.13281-9.04785a29.17443,29.17443,0,0,1-10.27148-22.88574q0-17.98829,15.96679-28.95313,15.9668-10.96288,42.15235-10.96387h12.98632v-9.89941q0-12.24024-5.42871-17.457-5.42871-5.21484-17.98925-5.21582-18.20216,0-37.68164,10.21875V264.51788q22.32422-7.98341,41.88476-7.9834,22.00342,0,31.09473,8.72852,9.08936,8.729,9.08984,30.124v48.43262q0,10.43408,2.23535,14.21,2.23536,3.77929,8.40918,3.7793a33.35822,33.35822,0,0,0,6.59961-1.06446l1.916,12.56055q-10.50879,3.40576-15.91992,3.40625Q1149.62255,376.71124,1144.21045,360.74444Zm-3.29981-13.625v-29.166h-6.28027q-43.11035,0-43.11035,23.31152,0,8.40967,5.53516,13.51855,5.53417,5.10938,14.68945,5.10938Q1125.47608,359.89288,1140.91064,347.11944Z"/></g></svg>