<svg id="Layer_3" data-name="Layer 3" xmlns="http://www.w3.org/2000/svg" viewBox="0 0 393.61492 390.56777"><defs><style>.cls-1{fill:#fbe8be;}.cls-2{fill:#ead4a7;}.cls-3{fill:#c7a081;}.cls-4{fill:#bf9473;}.cls-5{fill:#997f6d;}</style></defs><path class="cls-1" d="M388.61542,251.71893c-7.69525-8.88886-16.95648-16.14545-26.6742-22.69751-9.99194-6.737-20.25134-13.18359-31.46338-17.69574-20.23736-8.14423-42.53479-9.712-63.937-6.17151.06726-.02856.13514-.05878.2024-.08722q9.12662-3.86169,18.09283-8.08581a361.23914,361.23914,0,0,0,35.096-18.52167c10.87341-6.68573,20.03094-15.226,29.26544-23.956,9.28986-8.78223,19.11322-17.242,26.19208-28.00171,2.21832-3.37183-.76783-7.29639-4.31739-7.52362-32.27172-2.0658-63.74963-2.325-93.63427,11.69976a155.81994,155.81994,0,0,0-35.79029,23.64356c-5.4768,4.75952-10.403,10.06354-15.695,15.015-2.81464,2.63355-5.96271,5.61615-9.4975,7.26776-.8667.405-3.28662,1.56818-4.31207.81025a1.2583,1.2583,0,0,1-.41419-.67267q.08176-2.2977.16358-4.59546a5.55728,5.55728,0,0,0-.11963-1.37616c2.58667-6.50665,5.353-12.9469,7.43713-19.63935a171.42468,171.42468,0,0,0,5.24286-23.18585c1.27869-7.772,2.44488-15.60388,3.28583-23.43628.82135-7.65.944-15.53412-1.49787-22.923-2.25671-6.82861-6.28173-12.90448-8.58912-19.70831-2.47686-7.30359-1.86278-15.21027-4.42626-22.493-1.2251-3.4804-2.8977-6.77728-4.25635-10.20361a42.95926,42.95926,0,0,1-2.5476-10.31848c-.46192-3.44757-.92859-7.09985-2.81031-10.11157a11.68745,11.68745,0,0,0-7.04437-5.38947c-7.23034-1.56293-10.7135,6.40552-12.8728,11.8161-2.75037,6.89167-4.20978,14.19684-5.93622,21.38751a152.37758,152.37758,0,0,1-7.16681,21.89875c-5.827,14.32361-12.70495,28.74341-13.07489,44.50482a49.985,49.985,0,0,0,.95148,10.94055,1.417,1.417,0,0,0,.12012.2992c.01666.12915.03643.258.05407.38708a108.627,108.627,0,0,0,4.74225,39.37372,126.0273,126.0273,0,0,0,9.10224,21.14038c2.73364,5.1654,5.52838,10.29919,8.32287,15.4328-11.452-10.96271-24.20032-20.29761-39.85681-24.89764-24.71234-7.26069-51.37811-2.95624-74.94659,6.255A255.6516,255.6516,0,0,0,41.67175,183.058c-5.45392,1.73309-10.749,4.49078-15.723,6.733-7.08069,3.19177-15.658,6.44855-19.66736,13.617-7.12372,12.73632,3.95362,17.76031,15.91986,20.0689.84565.36206,1.68781.70063,2.50568,1.00757,16.895,6.34058,34.89264,10.11377,52.7652,12.30139a248.88841,248.88841,0,0,0,99.43347-8.12378,9.51332,9.51332,0,0,1,.175,2.29029,94.71425,94.71425,0,0,0-14.60425,12.37878,79.43028,79.43028,0,0,0-20.02692,42.42218c-5.28479,37.83081,19.14521,69.58832,34.04859,102.11066a4.01218,4.01218,0,0,0,3.79327,2.58655,4.42363,4.42363,0,0,0,5.51617-3.464,212.95518,212.95518,0,0,1,26.6933-65.93683c4.111-6.68958,8.82978-12.95618,11.7323-20.31012,5.65387-14.32459,4.97168-30.105,2.79505-45.06519-.4361-2.99719-1.58875-6.91534-.39972-9.85644,1.31329-3.24841,4.83343-3.67371,7.94043-3.30988a24.43988,24.43988,0,0,1,6.65094,1.89844,4.86414,4.86414,0,0,0,.78192.4115q.71328.29178,1.42645.58356c3.90967,1.84662,7.75183,4.01745,11.94818,4.88812a6.345,6.345,0,0,0,1.415.13293c12.06158,6.33466,25.86511,9.737,39.21338,11.8357,29.42566,4.62646,59.2063,2.20135,88.6037-1.35919a5.45888,5.45888,0,0,0,3.3645-1.75629A5.18541,5.18541,0,0,0,388.61542,251.71893Z"/><path class="cls-2" d="M392.77557,250.93371c-6.6972-10.1474-16.17828-17.74273-26.13134-24.53473a157.23057,157.23057,0,0,0-32.34876-16.94452,128.8119,128.8119,0,0,0-48.488-8.59576c16.19648-7.98193,32.32032-16.23273,46.50513-27.44446,17.72-14.006,33.11633-30.91247,46.434-49.10357a3.98939,3.98939,0,0,0-.07635-5.24884,4.86358,4.86358,0,0,0-4.73963-4.23475c-18.29077-.75885-36.586-1.358-54.76153,1.30365a170.64679,170.64679,0,0,0-44.6222,13.14484,173.15892,173.15892,0,0,0-54.66449,38.59906c8.81916-25.56531,17.1886-51.79877,12.69617-78.55981-1.54071-9.178-5.892-16.9311-10.00262-25.13843-4.1861-8.358-6.09943-17.30878-7.73822-26.44934-2.05725-11.475-4.5597-39.06824-21.67212-37.67627a5.06323,5.06323,0,0,0-4.62171,3.97265c-7.60449,5.85193-8.29748,19.33558-10.9541,28.16986-4.46118,14.83478-10.81915,28.99775-15.837,43.63843-5.02613,14.6648-8.83716,30.23731-8.01685,45.84955.76086,14.481,5.70166,28.44507,11.38782,41.658a193.63033,193.63033,0,0,0,25.394,42.45734c3.951,5.07086,10.9823-2.05133,7.07111-7.07111a180.58658,180.58658,0,0,1-25.01441-43.2962c-6.34338-15.74292-10.42242-31.65985-8.2525-48.72272,2.169-17.05444,8.7627-33.17767,14.87708-49.11066,3.1015-8.08185,6.15649-16.1972,8.558-24.52,1.18567-4.10888,2.11548-8.25927,3.0296-12.43475.7132-3.25806,1.48969-9.149,5.75635-9.4541,3.93524,3.263,5.36932,12.59894,6.19678,16.29175,1.78637,7.97253,2.7782,16.10412,4.69659,24.04907,3.897,16.13928,15.03668,29.19928,16.10632,46.09589,2.15155,33.98584-14.09747,65.97021-23.28039,97.84759-1.78479,6.19556,7.86175,8.84082,9.64276,2.65839.44122-1.53162.90442-3.067,1.37653-4.604a5.44076,5.44076,0,0,0,1.18176-1.2185,164.45492,164.45492,0,0,1,67.13067-54.397A160.96886,160.96886,0,0,1,321.067,125.88812c14.90612-2.23065,30.05224-1.9574,45.09613-1.37647a236.60555,236.60555,0,0,1-40.92157,41.83155c-17.89734,14.0523-39.38166,23.18695-59.592,33.34875a4.20911,4.20911,0,0,0-2.52868,3.75824c-1.38715.29657-2.772.60871-4.15058.95673-6.23584,1.57416-3.59356,11.22107,2.65845,9.64276,22.73248-5.73859,46.493-3.631,68.39826,4.44263a144.00769,144.00769,0,0,1,28.70269,14.6286c7.8902,5.14325,15.819,10.89483,21.9065,18.17828a254.48089,254.48089,0,0,1-74.562,3.97736c-13.36377-1.28925-25.92365-4.97437-38.57764-9.29529q-19.94064-6.80905-39.87378-13.64014c-4.84906-1.65881-7.494,4.09509-5.33527,7.57025-5.89428,9.14319-1.66,19.65949-1.046,30.16309.82465,14.10712-4.61731,27.548-11.15716,39.75055-11.03839,20.59637-23.38928,40.08234-30.62177,62.24451-13.11316-21.48786-27.3136-43.92011-29.44134-69.14185-2.4032-28.48682,13.60968-50.27325,32.57275-69.63348,4.50672-4.60114-2.55841-11.67823-7.071-7.07111-20.24256,20.6665-37.5152,44.58685-35.6294,74.93518,2.00708,32.299,21.627,59.67975,37.41345,86.7583,3.02,5.18018,10.73322,1.16205,9.13306-3.92364,6.28638-25.27985,20.12952-46.45111,32.279-69.12073,5.85919-10.93244,10.67932-22.47534,12.15338-34.87842a62.13909,62.13909,0,0,0-.69232-18.22131c-.99042-5.681-2.94385-12.699,1.30188-17.51288,24.31537,8.612,48.85266,18.53381,74.59223,21.017a264.01133,264.01133,0,0,0,83.09521-5.57886,6.87808,6.87808,0,0,0,3.60626-8.764Z"/><path class="cls-2" d="M194.73834,237.19976c-16.69543,22.16968-16.94012,50.85444-14.17859,77.26819.66242,6.33625,10.66956,6.40424,10,0-2.59515-24.82226-2.9024-51.35223,12.8133-72.221C207.24512,237.10522,198.56665,232.11609,194.73834,237.19976Z"/><path class="cls-2" d="M345.73914,235.63556a93.99712,93.99712,0,0,0-41.92139-11.85383c-7.99762-.3244-16.00183.1651-23.99964-.24249a156.14037,156.14037,0,0,1-25.58319-3.51074c-6.27209-1.37677-8.95135,8.26141-2.65838,9.64282,15.47021,3.39588,30.73431,3.97687,46.50543,4.00666,15.09851.0285,29.35364,3.239,42.61,10.59228C346.32446,247.39465,351.374,238.76123,345.73914,235.63556Z"/><path class="cls-2" d="M321.30164,139.52105c-29.34229,16.21344-64.11591,24.4032-86.98633,50.49585-4.22632,4.82178,2.81921,11.922,7.0711,7.07111,22.19422-25.32123,56.46442-33.1853,84.96241-48.93225C331.98285,145.0426,326.94415,136.40319,321.30164,139.52105Z"/><path class="cls-2" d="M201.77454,167.70953c-7.08826-19.921-9.18348-40.9223-8.04938-61.96118,1.16607-21.63153,8.24225-43.214,6.41931-64.92236-.53461-6.3664-10.53937-6.42328-10,0,.97607,11.62341-.95129,22.95849-2.85443,34.38555a272.17542,272.17542,0,0,0-3.65521,32.35474c-.96393,21.23505,1.34826,42.71094,8.49688,62.80164C194.27393,176.38836,203.93957,173.79431,201.77454,167.70953Z"/><path class="cls-2" d="M194.50006,212.33441c-15.05548,6.19122-30.2066,12.31738-46.00049,16.38531a169.58147,169.58147,0,0,1-48.563,4.96027,252.38724,252.38724,0,0,1-48.65179-6.9469c-7.73853-1.82263-15.47058-3.83533-23.04376-6.2619-2.91181-.933-15.17664-4.27869-17.83863-8.61475.02619-.08325.0564-.16186.07953-.24859,1.80915-6.78748,8.58979-10.15754,14.39264-13.10639q11.31684-5.751,23.0177-10.75165c15.923-6.77954,32.54236-12.25921,49.657-15.03466,16.998-2.7566,35.03546-2.92688,51.36895,3.05621,15.87439,5.81488,30.76978,15.33,44.30493,25.33032,5.18018,3.82739,10.17286-4.84759,5.04718-8.6347-14.9215-11.02466-31.476-21.32453-49.176-27.21247-17.88666-5.95-37.62915-5.06775-55.97186-1.88525-18.57361,3.22247-36.40625,9.62176-53.61426,17.1936-8.33661,3.66828-16.929,7.36756-24.75946,12.04474-4.78235,2.85657-9.05207,6.39972-11.74079,11.08869a4.15215,4.15215,0,0,0-2.71942,3.35186c-3.272,16.81708,22.12268,22.316,33.82105,25.58319A301.62965,301.62965,0,0,0,88.764,242.98407a187.66408,187.66408,0,0,0,55.08545-2.90735c18.42273-3.88416,35.95446-10.96283,53.309-18.09955C203.0285,219.56323,200.45746,209.88452,194.50006,212.33441Z"/><path class="cls-2" d="M193.90289,203.00848c-20.64483-13.88684-46.47485-16.01538-70.46863-11.8493-26.73663,4.64233-53.74456,19.24206-81.189,10.47644-6.14465-1.96259-8.77527,7.68908-2.65839,9.64282,26.40705,8.43426,52.398-2.67487,77.96228-8.707,23.956-5.65265,50.30268-5.05658,71.30658,9.07178C194.21014,215.24487,199.22089,206.58563,193.90289,203.00848Z"/><path class="cls-3" d="M164.31866,257.68377c6.39612-9.87341,14.1684-18.742,21.9-27.5736,1.2669-1.44721-.84668-3.57734-2.12134-2.12134-13.84534,15.8153-28.17493,32.363-33.95783,53.044a62.62567,62.62567,0,0,0-.89465,30.48554c2.276,10.35272,6.813,20.07751,11.73395,29.40741,5.92773,11.23877,12.22443,22.292,18.36414,33.416.93316,1.69068,3.5249.179,2.59039-1.51416-5.378-9.744-10.8064-19.462-16.12372-29.23919-4.90356-9.0163-9.61139-18.25068-12.46893-28.14893a60.27168,60.27168,0,0,1-1.21881-29.97693C154.32971,275.50085,158.7934,266.21289,164.31866,257.68377Z"/><path class="cls-3" d="M183.67285,49.20569c4.64081-11.29389,8.86743-22.84241,10.87818-34.92963.3142-1.88855-2.57624-2.70062-2.89283-.79749-3.64935,21.937-14.42328,41.68012-22.1051,62.31824-3.80188,10.21417-6.84418,20.76929-7.79651,31.66431a91.015,91.015,0,0,0,4.17829,34.64111c3.98834,12.945,10.04638,25.15064,16.47857,37.03009.91956,1.69837,3.51068.18555,2.59039-1.51416-11.12524-20.54687-21.592-42.968-20.4663-66.90485C165.5603,88.96521,175.54565,68.98419,183.67285,49.20569Z"/><path class="cls-3" d="M185.57739,192.48553c-20.48175-12.68-44.59045-18.78754-68.58423-19.008-25.09918-.2306-49.93634,5.96057-72.81842,16.03448-12.42321,5.46942-24.827,11.90491-34.635,21.45789-1.38543,1.34948.73682,3.46984,2.12134,2.12133,8.53974-8.31774,19.1258-14.09973,29.85285-19.09753a196.17625,196.17625,0,0,1,34.9732-12.50641c23.24695-5.84271,47.747-6.87695,71.16126-1.35187a122.58105,122.58105,0,0,1,36.41479,14.94049C185.70935,196.095,187.21753,193.50091,185.57739,192.48553Z"/><path class="cls-3" d="M378.44647,246.10968a172.379,172.379,0,0,1-59.42413,7.606,170.18609,170.18609,0,0,1-29.7099-4.03247c-10.08527-2.29236-19.84808-5.66693-29.58631-9.11017q-17.27325-6.10748-34.54614-12.21582c-1.82373-.64489-2.60827,2.25251-.79754,2.89283l31.02777,10.97168c9.96319,3.52307,19.91485,7.13623,30.18884,9.66455a175.1222,175.1222,0,0,0,93.645-2.88367C381.08081,248.429,380.29669,245.53192,378.44647,246.10968Z"/><path class="cls-3" d="M364.65637,123.99591c-8.71741,16.20666-22.99731,28.366-38.27112,38.19806-16.29321,10.48828-33.999,18.51446-50.58783,28.49817-4.72821,2.84558-9.36511,5.84838-13.82727,9.09722q-3.32253,2.41911-6.50982,5.0188-1.60437,1.31259-3.16486,2.67743c-.91962.8039-1.91052,1.85163-3.21008,1.87036a1.5009,1.5009,0,0,0,0,3c2.42822-.035,4.09741-1.68249,5.82574-3.1792q2.9025-2.51347,5.95575-4.847c3.97974-3.03882,8.12329-5.86011,12.35779-8.53076,8.58075-5.41175,17.53308-10.19837,26.47705-14.97418,16.88153-9.01416,33.9101-18.19294,48.18353-31.12647a91.399,91.399,0,0,0,19.36151-24.18829C368.16125,123.80987,365.57227,122.29315,364.65637,123.99591Z"/><path class="cls-3" d="M309.27136,137.03729a124.90486,124.90486,0,0,0-63.20379,35.975,122.6933,122.6933,0,0,0-12.81495,16.07122c-1.07666,1.609,1.52088,3.11255,2.59046,1.51416a121.73625,121.73625,0,0,1,54.9671-44.66864,120.34526,120.34526,0,0,1,19.25873-5.999C311.95294,139.51226,311.15564,136.61938,309.27136,137.03729Z"/><path class="cls-3" d="M207.65088,84.56555c-1.16022-7.58075-2.51953-15.129-3.90668-22.671-.34875-1.89612-3.24054-1.093-2.89282.79755,4.8128,26.16735,9.66131,53.23754,5.81915,79.86492a110.34063,110.34063,0,0,1-5.35534,21.67365c-.65589,1.8194,2.24194,2.603,2.89282.79755C213.5166,139.20507,211.73163,111.22888,207.65088,84.56555Z"/><path class="cls-3" d="M172.61383,204.87371c-17.11871-3.76861-34.58234-7.60229-52.22327-6.57952-16.45178.95379-32.1662,6.34936-48.36041,8.9306-8.9566,1.42761-18.15008,1.86261-27.07147-.032-1.88318-.39991-2.68805,2.49133-.79755,2.89282,16.02222,3.40259,32.1612-.34046,47.79907-3.92871a199.6109,199.6109,0,0,1,24.22907-4.52515,115.68461,115.68461,0,0,1,26.12024.572c9.93725,1.2431,19.73529,3.41168,29.50677,5.56287C173.69781,208.18078,174.50146,205.2893,172.61383,204.87371Z"/><path class="cls-3" d="M203.64325,236.2893A90.66612,90.66612,0,0,0,186.9704,265.472a92.24562,92.24562,0,0,0-4.74958,34.80518c.37458,7.53619,1.43659,15.01819,2.53785,22.47613.281,1.90308,3.17218,1.09412,2.89282-.79748-1.82538-12.3617-3.43952-24.876-2.00476-37.36884a87.21493,87.21493,0,0,1,20.1178-46.17633C207.01025,236.949,204.898,234.81714,203.64325,236.2893Z"/><path class="cls-3" d="M207.43359,262.55249c-.389-1.88965-3.28137-1.08991-2.89288.79754a63.68506,63.68506,0,0,1-2.36969,33.9701c-.64349,1.82421,2.25385,2.60888,2.89282.79748A66.70053,66.70053,0,0,0,207.43359,262.55249Z"/><path class="cls-3" d="M142.8382,213.05487a25.62973,25.62973,0,0,1-8.58625,2.84424q-4.9313.94179-9.88775,1.76007a101.77233,101.77233,0,0,1-20.34241,1.57769c-1.93066-.07483-1.92743,2.9253,0,3a105.90331,105.90331,0,0,0,21.14-1.68481q5.16779-.84348,10.31366-1.8421a26.98855,26.98855,0,0,0,8.877-3.0647A1.50111,1.50111,0,0,0,142.8382,213.05487Z"/><path class="cls-3" d="M132.905,186.95837a98.87822,98.87822,0,0,0-50.55,2.34863c-1.83392.58081-1.05041,3.47809.79749,2.89289a95.73433,95.73433,0,0,1,48.955-2.3487C133.98993,190.25708,134.79431,187.36572,132.905,186.95837Z"/><path class="cls-3" d="M184.37738,146.56048c-8.10718-17.246-6.71509-37.00519-5.36719-55.47894.14057-1.92615-2.8601-1.91724-3,0-1.08929,14.92993-2.11554,30.263,1.50525,44.94788a64.71012,64.71012,0,0,0,4.27155,12.04522C182.60773,149.82061,185.19482,148.29944,184.37738,146.56048Z"/><path class="cls-3" d="M311.63623,148.28442c-.02985,4.41956-3.62433,7.94385-6.59363,10.81085a78.65469,78.65469,0,0,1-10.02618,8.06726c-7.13465,4.92432-14.76184,9.07892-21.95325,13.916a90.81542,90.81542,0,0,0-11.57165,9.05707c-1.4101,1.3247.71435,3.443,2.12133,2.12133,13.13544-12.33917,30.74237-18.59765,43.69361-31.17791,3.53943-3.43805,7.29449-7.56635,7.32977-12.79456A1.5009,1.5009,0,0,0,311.63623,148.28442Z"/><path class="cls-3" d="M340.08429,241.5802c-11.22656,1.47137-20.72888-6.42639-30.16712-11.18262a46.428,46.428,0,0,0-17.704-4.93768c-7.18054-.54975-14.43219-.50165-21.62951-.69031l-24.75708-.64893c-1.93122-.0506-1.93,2.9494,0,3,14.59405.38257,29.22644.48767,43.8089,1.18207a50.70369,50.70369,0,0,1,10.25689,1.353,41.423,41.423,0,0,1,8.00214,3.07867c5.04572,2.49359,9.768,5.58753,14.81891,8.07086,5.40826,2.65906,11.27881,4.57343,17.37091,3.775a1.55162,1.55162,0,0,0,1.5-1.5A1.50729,1.50729,0,0,0,340.08429,241.5802Z"/><path class="cls-4" d="M290.07,149.07818c-8.68683,18.647-32.37952,21.75568-48.781,30.70453a139.0391,139.0391,0,0,0-23.51166,16.33954,57.503,57.503,0,0,0-7.32879,7.39612,95.382,95.382,0,0,1,5.27978-14.96112c5.55719-12.42615,13.11267-23.818,20.8288-34.98328,7.53046-10.89667,15.26843-21.70892,21.56976-33.38507a131.46918,131.46918,0,0,0,8.23773-18.33716c2.23719-6.29168,4.30237-12.84192,2.52051-19.48614-1.66534-6.20935-11.31451-3.57483-9.64282,2.65844,1.58423,5.907-2.10419,13.53821-4.35614,18.96064a137.52885,137.52885,0,0,1-8.78571,17.14c-6.316,10.68066-13.626,20.72467-20.62506,30.95752-10.82183,15.82178-20.88025,32.7876-25.1994,51.42615-6.21185-17.86157-6.31-37.61188-7.08533-56.34095q-1.59612-38.55687-2.20526-77.14508c-.10357-6.4284-10.10388-6.448-10,0q.65286,40.53846,2.36945,81.04938c.59674,13.97785,1.10828,28.25366,3.85651,41.97363a342.18021,342.18021,0,0,0-37.24164-31.23394c-9.2428-6.663-19.11884-12.57056-29.93585-16.2934a71.33754,71.33754,0,0,0-16.89521-3.53454c-6.65906-.5976-13.175-.459-19.52075-2.87726-6.01923-2.29383-8.62256,7.37-2.65839,9.64276,10.8714,4.14288,22.91474,2.23578,34.04,5.63391,10.89246,3.327,20.742,9.44891,29.923,16.06323a330.934,330.934,0,0,1,43.73321,38.103,170.47957,170.47957,0,0,0-45.09485-9.16022,124.66133,124.66133,0,0,0-27.371,1.49469c-9.1,1.5119-19.4104,5.85553-27.73407-.12848-5.23358-3.76251-10.23144,4.90766-5.04718,8.63471C90.73962,214.66,99.684,214.32,108.16663,212.686c10.04443-1.93487,19.70355-3.62836,29.98986-3.486,19.89966.27533,39.33515,5.41223,57.77924,12.61609a4.4541,4.4541,0,0,0,2.49847.2705c.01337.0232.02149.05091.03528.07367l.1684.27869c1.32208,2.18805,4.58063,3.343,6.84094,1.79376.18665-.12793.34766-.25934.507-.39105,2.66522,1.61163,6.46326,1.10693,7.06152-2.75641,1.4317-9.24451,8.52875-15.45929,15.55487-20.9433a123.159,123.159,0,0,1,25.58435-15.60235c16.57972-7.37079,36.16925-12.49262,44.51813-30.41419C301.40552,148.32794,292.78809,143.24359,290.07,149.07818Z"/><path class="cls-3" d="M198.20764,203.72583c-3.11774-17.56391-4.11749-35.40985-4.47052-53.22022-.35223-17.77356-.072-35.55542-.61206-53.32586-.30633-10.07935-.88556-20.15241-1.97864-30.179-.207-1.89868-3.20929-1.9198-3,0,1.94361,17.82806,2.239,35.77374,2.33911,53.6911.10065,17.99091.01276,36.00342,1.25849,53.96185a282.83237,282.83237,0,0,0,3.5708,29.86963C195.65167,206.421,198.54333,205.61682,198.20764,203.72583Z"/><path class="cls-3" d="M264.94641,77.46429a1.55427,1.55427,0,0,0-1.84515,1.04767,1.50915,1.50915,0,0,0,1.04767,1.84521c1.76239.24213,2.44488,2.03748,2.79724,3.58985a22.657,22.657,0,0,1,.35089,6.94568,41.19053,41.19053,0,0,1-4.16272,13.76544c-3.96472,8.3985-9.04,16.33453-14.05121,24.13739-9.84772,15.33362-20.49426,30.184-29.33575,46.14313A169.39556,169.39556,0,0,0,207.16956,202.902c-.61713,1.83392,2.27929,2.62072,2.89282.79748,6.03314-17.92889,15.87457-34.2038,26.17938-49.955,5.19873-7.94641,10.53778-15.80072,15.663-23.79516,5.16419-8.05518,10.46686-16.27057,14.39191-25.01813,2.23529-4.98175,3.974-10.285,4.09778-15.79083C270.4812,85.28485,269.95422,78.15234,264.94641,77.46429Z"/><path class="cls-3" d="M295.71942,150.246c.03919,7.33539-3.94464,13.89172-9.221,18.73291-6.01239,5.51648-13.76837,8.68231-21.32238,11.46686-15.31464,5.6452-30.8133,11.45569-42.90369,22.85833a55.33408,55.33408,0,0,0-13.12549,18.52442,1.59184,1.59184,0,0,0-.65558-.22363c-8.40307-.96784-16.04223-5.00495-23.911-7.81379a113.47271,113.47271,0,0,0-51.12536-5.75549c-9.07129,1.03973-18.02332,2.54352-27.184,2.53107-4.67852-.00641-9.70367.04364-14.205-1.39173-3.65766-1.16632-7.298-4.04211-7.46643-8.17-.07843-1.92371-3.07886-1.93372-3,0a11.62905,11.62905,0,0,0,5.14032,8.87177c3.33758,2.41131,7.59247,3.09143,11.60156,3.40136,9.44861.73041,18.80719-.085,28.16931-1.34894a136.92242,136.92242,0,0,1,27.538-1.43054,110.28071,110.28071,0,0,1,26.21624,4.9961c9.309,2.97351,18.07593,7.841,27.87421,9.06115-.08435,1.4867,2.37927,2.00208,2.98022.35523,5.47138-14.994,18.51319-25.48407,32.38031-32.43689,7.52381-3.77234,15.43787-6.51392,23.30878-9.4447,7.59839-2.82935,15.25531-6.08838,21.38-11.539,6.06652-5.39881,10.57525-12.94275,10.53094-21.24445A1.5009,1.5009,0,0,0,295.71942,150.246Z"/><path class="cls-3" d="M187.9787,205.40484c-12.39911-12.49322-24.88519-25.02807-39.19873-35.35815-13.44422-9.7027-28.767-17.44086-45.22669-20.24689-4.34436-.74066-8.73175-.93066-13.09649-1.48266-3.988-.50434-8.09528-1.5-11.12018-4.30335-1.41455-1.311-3.54108.80554-2.12134,2.12128,5.57556,5.16717,13.45276,5.16388,20.57239,5.88336a87.20372,87.20372,0,0,1,24.05273,6.21167c15.92682,6.49554,29.88135,16.956,42.55188,28.42663,7.40021,6.69941,14.43549,13.78644,21.46515,20.86945A1.50085,1.50085,0,0,0,187.9787,205.40484Z"/><path class="cls-5" d="M188.78979,63.36425a3.93266,3.93266,0,0,0-5.91082,1.52039,12.178,12.178,0,0,0-1.08173,2.68933q-.19839.41574-.37262.85095c-.02429.05664-.05041.11444-.07349.17017-.0122.02954-.02185.05994-.03387.08954a7.43527,7.43527,0,0,0-.59021,1.70727,21.23881,21.23881,0,0,0-.78265,6.26264c.00287.16607.02215.33166.028.49768-.00244.1914-.02026.3836-.018.57458a23.22594,23.22594,0,0,0,.96045,6.35389,33.9725,33.9725,0,0,0,.7583,3.87139,3.69165,3.69165,0,0,0,1.37451,2.48951,1.96387,1.96387,0,0,0,.94836.28039,4.74007,4.74007,0,0,0,1.57758.879c4.32245,1.3974,6.72565-4.12177,7.73846-8.21338a16.29931,16.29931,0,0,0,1.80762-6.251A15.68318,15.68318,0,0,0,188.78979,63.36425Z"/><path class="cls-5" d="M267.64752,88.2185a18.22062,18.22062,0,0,0-.65509-5.05066,4.64706,4.64706,0,0,0-.27515-.62274,1.581,1.581,0,0,0,.17048-.6159c.2135-2.86133-3.30414-4.34-5.62006-3.235-2.97827,1.42114-3.63159,5.61353-4.45581,8.43884-.08679.29749-.17047.59613-.25507.89441a21.61856,21.61856,0,0,0-1.76861,7.54846c-.0055.10523-.00141.21027-.00531.3155-.14051.93823-.25238,1.881-.32532,2.82934-.19879,2.58356.10773,5.75964,2.2486,7.53113a4.85024,4.85024,0,0,0,.65356.44879c.00989.01788.018.03668.028.0545a1.54013,1.54013,0,0,0,2.00886.56641,6.21759,6.21759,0,0,0,5.18585-2.64191c2.102-2.87548,2.5592-7.11877,2.90521-10.55792A40.28809,40.28809,0,0,0,267.64752,88.2185Z"/><path class="cls-5" d="M297.61853,153.80645c-.21942-2.41735-1.794-6.08837-4.29944-6.22851a1.48929,1.48929,0,0,0-2.52594-1.17664q-4.33438,4.67871-8.46173,9.54285c-1.28851,1.52051-2.60944,3.03143-3.809,4.62378a5.88682,5.88682,0,0,0-1.36493,4.89111c.81506,3.404,4.68292,4.88471,7.82965,4.19318,3.46417-.76129,6.69586-3.62049,8.97064-6.22382C296.26746,160.78515,297.945,157.4021,297.61853,153.80645Z"/><path class="cls-5" d="M92.42657,144.2633a1.34133,1.34133,0,0,0-.69122-1.53369,23.18394,23.18394,0,0,0-5.69873-2.30786,10.77084,10.77084,0,0,0-6.06647-.12518,5.7801,5.7801,0,0,0-3.77679,3.74151,5.58613,5.58613,0,0,0,1.33618,5.02771,6.9717,6.9717,0,0,0,1.229,1.12183c.035.03436.06708.07214.10273.10577a14.9845,14.9845,0,0,0,10.18127,3.94239c2.81342.79437,6.6897.81878,7.50452-2.67444C97.22693,148.64673,94.86047,145.98785,92.42657,144.2633Zm-11.30334.11743a2.69406,2.69406,0,0,0-.27185,1.0279,2.153,2.153,0,0,1-.36688-.79023A2.45441,2.45441,0,0,1,81.12323,144.38073Z"/><path class="cls-5" d="M99.85333,211.47339a7.45523,7.45523,0,0,0-2.564-4.91083,3.58506,3.58506,0,0,0-.14484-.55292,4.5221,4.5221,0,0,0-.61237-1.13251,1.59127,1.59127,0,0,0-.2796-1.72082c-2.17315-2.57794-6.59247-5.15332-10.234-4.71887-.01635-.00531-.03216-.01264-.04852-.018a4.20179,4.20179,0,0,0-4.254.53748,3.54377,3.54377,0,0,0-.71277.92364,2.609,2.609,0,0,0-.62506,1.009,3.757,3.757,0,0,0-.50488,1.325,6.99781,6.99781,0,0,0,.823,4.19226c.15057.31451.31671.6217.49359.923.06671.2229.1358.445.22046.65869a11.53749,11.53749,0,0,0,5.51111,5.57868,39.957,39.957,0,0,0,3.78845,1.72949,13.25077,13.25077,0,0,0,3.91986,1.07635A4.65468,4.65468,0,0,0,99.85333,211.47339Zm-15.31714-7.5271a1.835,1.835,0,0,0,.0257.31842,6.72328,6.72328,0,0,0,.41772,1.40942,6.538,6.538,0,0,1-.60656-.79572c-.03351-.11407-.07416-.25378-.11737-.41687A2.76148,2.76148,0,0,1,84.53619,203.94629ZM95.205,213.44238a5.38654,5.38654,0,0,0,1.6336-1.1767,1.80221,1.80221,0,0,1-.27508.543A1.673,1.673,0,0,1,95.205,213.44238Z"/></svg>